<svg version="1.1" id="Layer_1" xmlns="http://www.w3.org/2000/svg" xmlns:xlink="http://www.w3.org/1999/xlink" x="0px" y="0px"
	 width="100%" viewBox="0 0 1024 1024" enable-background="new 0 0 1024 1024" xml:space="preserve">
<path fill="#000000" opacity="1.000000" stroke="none" 
	d="
M893.772339,913.247925 
	C893.521667,918.667175 891.233337,921.012268 886.038208,921.125122 
	C879.709106,921.262695 873.373779,921.092896 867.041138,921.092407 
	C740.882202,921.082520 614.723145,921.151123 488.564453,920.988098 
	C470.997955,920.965454 471.584717,919.039124 471.599152,904.132324 
	C471.697571,802.638428 471.611389,701.144348 471.757050,599.650574 
	C471.764954,594.133484 470.563263,591.230408 464.885712,589.047058 
	C447.335876,582.297974 433.200073,570.607422 420.403168,556.912781 
	C397.834320,532.760620 383.476288,503.824188 370.558746,473.948639 
	C365.416779,462.056305 359.890625,450.319183 355.111542,438.284210 
	C351.057678,428.075592 348.424744,417.509064 348.580658,406.267883 
	C348.765442,392.944489 348.418335,379.714264 353.429840,366.936554 
	C356.076080,360.189575 359.546692,354.039124 363.567230,348.103943 
	C365.584167,345.126465 368.422760,344.603607 371.815002,344.609253 
	C439.810394,344.722229 507.805939,344.753693 575.801453,344.797760 
	C589.280884,344.806488 602.760376,344.799072 616.782227,344.799072 
	C615.089172,339.244232 611.299377,335.870636 608.056946,332.362640 
	C584.159363,306.508087 556.882568,284.980530 525.788147,268.286621 
	C510.684662,260.177856 495.595001,252.111938 479.234894,246.805740 
	C472.136963,244.503601 464.940735,243.059998 457.281830,244.247604 
	C451.241638,245.184189 446.979309,248.801346 442.736725,252.416107 
	C429.023895,264.099609 416.886566,277.400238 404.488861,290.424347 
	C390.377655,305.248505 376.476746,320.277985 362.150970,334.891357 
	C347.270660,350.070435 337.053955,367.599976 334.650757,388.883575 
	C333.117615,402.461670 333.523346,415.943268 338.191589,429.288788 
	C345.150452,449.182770 351.343292,469.361053 357.302521,489.583282 
	C362.421844,506.955261 371.081818,522.242554 382.529907,536.065979 
	C396.643250,553.107727 411.392029,569.586487 427.271210,585.010742 
	C432.515747,590.104980 438.072174,594.889221 443.633423,599.642700 
	C447.478424,602.929260 448.072601,607.332581 448.194397,611.834778 
	C448.392670,619.162659 448.292145,626.499146 448.290710,633.831970 
	C448.272858,726.492920 448.250244,819.153809 448.228149,911.814758 
	C448.226685,917.932007 446.560089,919.756042 440.533508,920.510803 
	C431.893433,921.592712 423.217499,921.052551 414.563843,921.061646 
	C324.236328,921.156433 233.908722,921.159058 143.581146,921.182617 
	C142.081863,921.182983 140.574890,921.212158 139.084595,921.080261 
	C131.861160,920.440491 130.195450,918.309265 131.476395,911.141785 
	C137.776031,875.891968 144.080200,840.642883 150.438873,805.403687 
	C156.767487,770.331177 163.307663,735.296082 169.487198,700.197449 
	C175.438629,666.394470 181.420441,632.599426 188.754684,599.065063 
	C192.205643,583.286316 199.287521,569.345337 210.972198,557.947388 
	C218.222046,550.875366 226.678391,545.669922 235.993469,541.833557 
	C265.214417,529.798950 294.425720,517.739502 323.722015,505.890564 
	C327.496216,504.364075 327.666260,502.621704 326.608856,499.141724 
	C318.695496,473.098419 310.568604,447.107300 303.392029,420.858276 
	C299.857788,407.931366 300.864227,394.561188 303.546875,381.350128 
	C309.716644,350.966064 316.053650,320.606110 321.523285,290.093079 
	C325.233978,269.392365 333.445221,250.795166 344.383026,233.128738 
	C361.856140,204.906586 383.695465,180.534042 408.833252,158.940155 
	C434.080109,137.252563 462.426331,121.378204 494.514526,112.480629 
	C509.268036,108.389694 523.943054,110.112602 538.006714,115.667084 
	C567.147278,127.176178 593.625000,143.259888 618.032776,162.894394 
	C639.575012,180.223846 657.774963,200.735413 674.586121,222.450790 
	C684.247131,234.930054 692.168945,248.681320 698.221802,263.383942 
	C702.886108,274.713867 703.920105,286.876648 706.239746,298.723724 
	C711.654663,326.378357 715.145569,354.396332 721.383728,381.891571 
	C725.836731,401.518738 724.965576,420.576172 718.946777,439.822754 
	C712.318726,461.017487 706.794312,482.557404 700.727905,504.165192 
	C709.020630,509.113922 718.183960,511.696625 726.746643,515.610657 
	C750.179626,526.321899 774.772034,534.386292 797.814392,545.927185 
	C813.753052,553.910156 823.921631,567.537537 830.755432,583.888672 
	C837.750122,600.624756 839.666077,618.527649 843.209351,636.037292 
	C848.172607,660.564575 852.646851,685.193848 857.081726,709.824280 
	C861.984924,737.054932 866.509216,764.353760 871.378357,791.590698 
	C876.802673,821.932678 882.418152,852.240540 887.974731,882.558777 
	C889.827026,892.665222 891.754333,902.757874 893.772339,913.247925 
M599.798035,277.645905 
	C603.488708,280.746765 607.526123,283.521179 610.807922,287.007019 
	C622.767883,299.710419 635.728943,311.493561 646.496399,325.297852 
	C657.185364,339.001526 666.074463,353.674042 670.936340,370.567596 
	C679.227051,399.375275 676.449646,427.058075 663.032043,453.791351 
	C656.690491,466.426178 650.702942,479.241425 644.216980,491.800354 
	C631.903870,515.642517 618.721130,538.839478 599.292603,557.974854 
	C584.776978,572.271484 568.954224,584.269226 550.000427,592.039978 
	C536.900879,597.410461 523.232056,596.470398 509.635315,596.273376 
	C505.209381,596.209229 503.886444,597.687195 503.893860,602.006531 
	C504.054230,695.156738 504.097778,788.307251 504.189545,881.457642 
	C504.196625,888.644531 504.284821,888.647583 511.716217,888.647644 
	C623.698181,888.648804 735.680115,888.649170 847.662109,888.649109 
	C848.995178,888.649109 850.330017,888.596924 851.661072,888.647217 
	C855.101013,888.777161 855.851746,887.249634 855.263733,883.957764 
	C852.233948,866.997864 849.809692,849.920837 846.420349,833.036011 
	C839.374084,797.933716 834.266785,762.497375 827.703735,727.315308 
	C820.655029,689.529602 813.631409,651.739319 806.614868,613.947693 
	C803.369812,596.469910 796.143677,581.609192 779.109436,573.702698 
	C770.378845,569.650391 761.298096,566.354858 752.391113,562.679749 
	C729.982239,553.433533 707.471924,544.425537 685.397339,534.391357 
	C683.563171,533.557678 682.291443,533.739014 680.956726,535.113403 
	C679.451599,536.663086 677.780823,538.056519 676.324158,539.647949 
	C653.702698,564.362732 629.505859,587.429138 604.115479,609.283081 
	C599.658813,613.119019 594.585388,616.442993 591.127319,621.434998 
	C592.925049,623.271484 595.024170,622.730225 596.956299,622.740417 
	C608.952820,622.803467 620.957153,622.559814 632.944031,622.916565 
	C642.537354,623.202148 648.602112,630.117371 648.337097,639.563538 
	C648.067627,649.168213 641.790161,655.307251 632.103333,655.341003 
	C620.438721,655.381653 608.773865,655.355225 597.109070,655.359680 
	C587.444031,655.363342 577.778320,655.435913 568.114197,655.343384 
	C564.003479,655.304016 561.880005,656.682190 562.285522,661.200256 
	C562.597168,664.672058 562.442810,668.196350 562.334229,671.692383 
	C562.194397,676.196716 559.326965,679.105591 554.967834,679.389648 
	C551.312500,679.627747 547.659180,679.898376 544.002441,680.111694 
	C536.665771,680.539795 532.673401,676.887390 532.657166,669.697937 
	C532.633850,659.366333 533.652527,648.910339 532.388916,638.735657 
	C530.936768,627.042358 536.228271,620.536621 544.971619,614.202026 
	C561.794617,602.013672 578.075500,589.048523 593.200500,574.739563 
	C613.744202,555.304443 634.125977,535.694031 652.471863,514.122131 
	C659.454529,505.911652 667.066223,497.864594 670.601624,487.470428 
	C676.589417,469.866119 682.009155,452.062012 687.344238,434.245026 
	C690.147827,424.882324 693.445129,415.409180 692.459595,405.471832 
	C691.528564,396.083374 689.707397,386.774139 688.071106,377.466370 
	C683.310608,350.386658 678.164795,323.371155 673.731140,296.238800 
	C671.159058,280.498322 665.669495,266.273773 656.313904,253.332092 
	C644.876587,237.510498 632.142761,222.843155 618.717285,208.709259 
	C592.343262,180.943481 561.739380,159.285950 526.275513,144.762039 
	C517.394958,141.125076 507.246857,139.901550 498.483368,142.968430 
	C471.185303,152.521713 447.456848,168.424454 425.666901,187.339661 
	C405.501709,204.844467 388.859619,225.298416 374.356812,247.592545 
	C366.792389,259.220795 360.334595,271.328003 358.065643,285.276611 
	C357.758881,287.162598 356.999512,288.808380 359.340607,290.130463 
	C360.248871,289.631805 361.627686,289.334198 362.193146,288.491058 
	C366.378235,282.250946 372.063354,277.332275 376.814423,271.619232 
	C388.943878,257.033691 401.373779,242.765793 416.081787,230.681198 
	C434.043945,215.922928 454.223450,209.425110 477.455902,214.435944 
	C500.577942,219.422958 521.982788,228.862793 542.726624,239.871307 
	C562.745544,250.495071 581.484436,263.133575 599.798035,277.645905 
M288.499939,888.649414 
	C328.315765,888.649841 368.131592,888.651489 407.947418,888.649597 
	C415.636749,888.649292 415.664062,888.642883 415.615540,881.068054 
	C415.287048,829.765137 416.279205,778.458557 415.069702,727.157104 
	C414.276733,693.523010 416.104858,659.884644 415.120178,626.245117 
	C415.053101,623.953308 414.689697,622.131409 413.075439,620.383179 
	C400.885681,607.182190 388.692291,593.982422 376.668304,580.630798 
	C365.095978,567.780762 353.536987,554.871033 343.801514,540.551758 
	C340.958160,536.369690 338.689850,535.648193 334.185333,537.493530 
	C306.521637,548.826416 278.896149,560.276550 250.976730,570.952148 
	C234.628891,577.203186 224.519577,588.388062 220.384003,604.999207 
	C216.944427,618.814758 214.592957,632.874390 212.126083,646.905945 
	C207.019440,675.952698 201.502869,704.927063 196.283447,733.954346 
	C191.591187,760.049744 187.058197,786.173828 182.478378,812.289368 
	C178.355576,835.798889 174.450760,859.349243 170.014206,882.799133 
	C169.039749,887.949768 170.454453,888.737122 175.050369,888.721313 
	C212.533188,888.592285 250.016647,888.648865 288.499939,888.649414 
M561.500000,410.256744 
	C537.341431,410.253906 513.182861,410.240143 489.024292,410.251068 
	C461.366943,410.263580 433.709259,410.234436 406.052704,410.394714 
	C402.119354,410.417480 400.163208,409.423950 399.095276,405.290527 
	C396.688416,395.975006 393.590118,386.838776 390.810028,377.618469 
	C390.344299,376.073883 390.509155,373.876617 388.330872,373.859802 
	C386.077728,373.842377 385.892883,375.961395 385.207001,377.720215 
	C380.596649,389.543060 380.127777,402.004242 381.635864,414.139862 
	C383.254150,427.162415 386.992126,439.954163 398.693115,448.379150 
	C400.061310,449.364319 401.288910,450.761322 403.023224,450.539001 
	C408.347870,449.856384 408.516357,453.070190 408.391327,456.968353 
	C408.220520,462.294434 408.446136,467.632416 408.317932,472.960876 
	C408.228729,476.669067 408.681091,480.359283 410.123718,483.648529 
	C421.181793,508.861725 436.569427,531.173279 458.473724,547.938416 
	C482.146362,566.056946 509.168610,570.676880 537.666992,561.436829 
	C557.345337,555.056458 572.159851,541.345764 585.411560,525.937927 
	C593.342957,516.716125 599.850647,506.533752 605.340271,495.692078 
	C610.795349,484.918518 615.735168,474.088074 613.230957,461.401154 
	C612.578064,458.093384 613.132568,454.547333 613.132568,450.636719 
	C615.283508,450.636719 617.092834,450.510986 618.878113,450.664215 
	C622.101074,450.940826 624.306519,449.566162 626.822815,447.517792 
	C634.761169,441.055664 638.156677,432.422333 640.879822,422.949677 
	C645.967041,405.252655 644.409668,388.194489 637.699585,371.340942 
	C637.289917,370.311920 637.151367,368.998901 635.259766,369.197418 
	C634.995972,369.847015 634.537231,370.562378 634.418823,371.330200 
	C632.614990,383.018860 628.745972,394.165497 625.642639,405.517853 
	C624.597900,409.339844 622.739075,410.436676 618.980469,410.401672 
	C600.154785,410.226532 581.327026,410.281921 561.500000,410.256744 
z"/>
<path fill="#000000" opacity="1.000000" stroke="none" 
	d="
M702.908569,749.968140 
	C654.781128,749.958191 607.140625,749.972107 559.500183,749.928589 
	C555.177429,749.924683 550.853149,749.585693 546.532898,749.343079 
	C538.044556,748.866394 531.517761,741.163757 531.661804,731.842773 
	C531.795837,723.176331 538.536194,715.935791 546.941040,715.918884 
	C600.243469,715.811707 653.546204,715.728149 706.848389,715.843689 
	C713.987671,715.859131 721.156860,716.709900 725.370483,724.119751 
	C731.773010,735.378601 725.220703,748.301880 712.354614,749.409302 
	C709.374084,749.665771 706.382263,749.790894 702.908569,749.968140 
z"/>
<path fill="#000000" opacity="1.000000" stroke="none" 
	d="
M649.175293,833.168823 
	C656.146240,847.256287 645.945984,858.976562 633.125000,858.598022 
	C605.362732,857.778320 577.558533,858.184509 549.773743,858.394592 
	C534.244324,858.512085 529.324036,843.844727 532.914734,834.909607 
	C535.235107,829.135254 539.905945,825.483154 545.710327,825.527832 
	C574.156738,825.747131 602.599670,825.689697 631.042175,825.059204 
	C638.097473,824.902832 644.593201,826.573181 649.175293,833.168823 
z"/>
<path fill="#000000" opacity="1.000000" stroke="none" 
	d="
M642.297119,801.788818 
	C639.531494,802.597107 637.180786,803.353577 634.620667,803.349365 
	C605.797913,803.302063 576.974976,803.348877 548.152283,803.285950 
	C540.035095,803.268250 534.814026,799.479614 532.206116,792.124451 
	C530.128967,786.266357 532.321289,778.217224 537.131348,773.851746 
	C539.746643,771.478149 542.882568,770.610352 546.296570,770.609741 
	C575.952209,770.604370 605.608032,770.579712 635.263489,770.660828 
	C643.887939,770.684448 649.746094,775.680420 651.881958,784.386230 
	C653.358948,790.406494 649.222473,798.119263 642.297119,801.788818 
z"/>
<path fill="#000000" opacity="1.000000" stroke="none" 
	d="
M705.946289,622.730957 
	C713.311035,622.733765 720.301697,622.423828 724.649902,629.358643 
	C728.336731,635.238464 728.329224,641.260498 725.295593,647.381165 
	C722.349915,653.324341 717.297058,655.416626 710.962097,655.371460 
	C701.297302,655.302551 691.631653,655.365479 681.966370,655.349976 
	C672.664062,655.335083 665.779358,648.369263 665.658142,638.882874 
	C665.535950,629.326233 671.706604,622.896362 681.460510,622.719604 
	C689.456360,622.574646 697.457275,622.714600 705.946289,622.730957 
z"/>
<path fill="#000000" opacity="1.000000" stroke="none" 
	d="
M379.201355,872.317078 
	C367.781311,869.687073 364.652985,865.779358 364.650726,854.655701 
	C364.648010,841.332764 364.403259,828.003235 364.758514,814.689819 
	C364.916504,808.768066 361.431000,809.440063 357.660156,809.294250 
	C353.625549,809.138184 351.116211,809.584717 351.239105,814.799866 
	C351.568604,828.781128 351.366180,842.775391 351.341675,856.764465 
	C351.328644,864.201660 346.951508,870.092102 340.124115,871.978210 
	C333.368958,873.844360 325.646515,870.660400 321.992981,864.582764 
	C320.721680,862.467957 320.636505,860.196472 320.640381,857.846313 
	C320.662628,844.356812 320.653076,830.867371 320.649780,817.377869 
	C320.647797,809.355103 320.644012,809.355408 312.370697,809.349792 
	C309.706116,809.347961 307.038635,809.422485 304.377625,809.323364 
	C299.551117,809.143555 296.895264,806.726868 296.900574,801.870789 
	C296.921265,782.892761 296.928986,763.910583 297.351898,744.939087 
	C297.541595,736.430054 304.013977,731.058655 312.599609,731.257202 
	C321.417358,731.461121 328.178894,737.702026 328.318329,745.974609 
	C328.444580,753.466736 328.458984,760.964111 328.327972,768.455811 
	C328.263672,772.133850 329.305481,773.900818 333.436859,773.788879 
	C341.922302,773.558899 350.430756,773.569275 358.909576,773.940735 
	C363.681641,774.149658 364.927094,772.307373 364.733704,767.845703 
	C364.423889,760.698120 364.582764,753.526245 364.673187,746.366333 
	C364.787476,737.315796 371.401855,730.947571 380.202850,731.267212 
	C388.904999,731.583313 395.392822,738.380005 395.382111,746.916687 
	C395.336395,783.388184 395.356903,819.859741 395.344849,856.331238 
	C395.341644,866.015076 389.354584,872.095032 379.201355,872.317078 
z"/>
<path fill="#000000" opacity="1.000000" stroke="none" 
	d="
M248.842896,727.004150 
	C248.830994,723.007446 248.815125,719.509827 248.810501,716.012146 
	C248.798065,706.606384 254.130768,699.978516 261.976196,699.641663 
	C272.312622,699.197876 279.466064,705.286316 280.201935,715.189636 
	C280.312805,716.682068 280.296448,718.185852 280.297363,719.684387 
	C280.318085,753.828735 280.105164,787.975830 280.518921,822.115356 
	C280.615234,830.061279 274.409607,839.153870 264.806000,839.260254 
	C255.617706,839.361938 248.780487,831.813232 248.796143,821.940613 
	C248.846054,790.461487 248.832886,758.982300 248.842896,727.004150 
z"/>
<path fill="#000000" opacity="1.000000" stroke="none" 
	d="
M254.332916,668.880859 
	C253.735077,679.416382 245.046112,686.261841 237.129868,687.240112 
	C228.904358,688.256592 219.363449,682.445435 216.730209,675.087585 
	C213.978683,667.399231 215.727798,658.953125 221.318054,653.961304 
	C227.441772,648.493042 234.602371,646.965637 242.123077,650.186951 
	C249.916534,653.525024 254.313400,659.650208 254.332916,668.880859 
z"/>
</svg>