<svg version="1.1" id="Layer_1" xmlns="http://www.w3.org/2000/svg" xmlns:xlink="http://www.w3.org/1999/xlink" x="0px" y="0px"
	 width="100%" viewBox="0 0 1024 1024" enable-background="new 0 0 1024 1024" xml:space="preserve">
<path fill="#000000" opacity="1.000000" stroke="none" 
	d="
M799.522461,870.624939 
	C791.247314,876.920471 782.189270,879.393982 772.203186,879.390930 
	C610.710449,879.341614 449.217682,879.358765 287.724945,879.343750 
	C262.763855,879.341431 242.590485,859.216003 242.591049,834.309082 
	C242.594925,665.983948 242.627274,497.658783 242.604126,329.333649 
	C242.603149,322.181366 241.990616,315.030090 241.948105,307.876648 
	C241.910751,301.592407 245.560806,298.105347 251.155273,298.709259 
	C254.743744,299.096619 256.939819,301.044678 257.297058,304.762482 
	C257.376495,305.589233 257.339294,306.427673 257.346252,307.260803 
	C258.391693,432.580658 258.183868,557.904419 257.771362,683.223816 
	C257.618317,729.713013 257.667816,776.205566 257.378296,822.695679 
	C257.320160,832.028809 257.465363,841.370911 263.280853,849.488098 
	C269.541595,858.226746 277.344360,863.749634 288.662079,863.745972 
	C405.155762,863.708618 521.649475,863.787048 638.143188,863.816833 
	C664.141541,863.823486 690.140076,863.805664 716.138245,863.725098 
	C735.572571,863.664856 751.832825,847.934143 751.871338,828.438660 
	C751.990845,767.942200 751.750305,707.445068 751.760803,646.948242 
	C751.784668,510.121429 751.875916,373.294647 751.934082,236.467834 
	C751.935425,233.301651 751.529907,230.096069 751.891663,226.975830 
	C753.839111,210.179474 734.490601,191.734329 716.121582,192.257675 
	C660.143921,193.852524 604.141846,192.548477 548.151306,192.965576 
	C544.995728,192.989075 541.831299,192.722610 538.682251,192.457336 
	C535.884644,192.221680 534.495911,192.919144 534.281921,196.176727 
	C532.783325,218.983902 514.979980,237.886353 492.567780,239.129776 
	C469.002167,240.437195 449.996674,221.979340 446.730865,202.470871 
	C444.928192,191.702744 445.220154,191.761597 434.255890,192.522003 
	C419.444702,193.549225 404.605316,192.916656 389.779205,192.963516 
	C355.781525,193.070969 321.772552,193.558609 287.790161,192.845673 
	C271.817230,192.510574 256.341370,207.074203 257.280243,223.563156 
	C257.696411,230.872437 257.440918,238.226120 257.319641,245.556839 
	C257.269745,248.572845 258.295563,249.806335 261.419434,249.498383 
	C275.716003,248.089081 290.059113,248.871857 304.377899,248.857132 
	C434.537964,248.723312 564.698120,248.705597 694.858276,248.615234 
	C699.247070,248.612183 703.231689,249.001022 705.262634,253.683212 
	C706.897034,257.451263 705.489746,260.453400 702.980652,263.212891 
	C701.285645,265.077026 699.057251,265.761017 696.675110,265.721832 
	C640.189453,264.792328 583.699951,265.363281 527.212646,265.314056 
	C422.050781,265.222443 316.888824,265.315887 211.726898,265.323242 
	C210.064301,265.323364 208.353043,265.438568 206.748688,265.100464 
	C202.718109,264.251007 199.425446,259.871857 199.693970,256.026550 
	C200.002731,251.605560 202.937668,248.832809 208.218536,248.739670 
	C217.714493,248.572220 227.221481,248.544998 236.712982,248.826263 
	C241.176285,248.958527 242.730820,247.691864 242.795853,242.952026 
	C242.930435,233.142105 241.055252,223.393112 242.580429,213.529785 
	C245.609421,193.941345 265.692657,177.678162 280.632080,177.431183 
	C334.119843,176.546982 387.602997,177.056305 441.087067,177.100861 
	C446.440002,177.105316 449.638702,175.793427 452.657623,170.933884 
	C465.572968,150.144165 488.859863,143.672791 509.790527,154.642578 
	C517.652161,158.762894 523.733398,164.977722 527.537109,173.005753 
	C529.224976,176.568024 531.218811,177.809784 535.131592,177.721832 
	C612.108643,175.991547 689.098450,177.346420 766.081421,176.854416 
	C772.593323,176.812805 779.139038,176.744308 785.503784,177.967422 
	C802.596375,181.252121 816.292908,198.083298 816.310913,215.648254 
	C816.375610,278.812012 816.365540,341.975861 816.365356,405.139679 
	C816.364990,548.799866 816.361633,692.460022 816.334167,836.120178 
	C816.331482,850.160889 810.534546,861.488647 799.522461,870.624939 
M800.649963,492.500092 
	C800.651917,400.521790 800.641296,308.543457 800.677734,216.565155 
	C800.680908,208.601532 797.367676,202.484299 791.055542,197.863113 
	C779.666870,189.525269 766.752747,193.255112 753.478638,192.384415 
	C763.930298,203.450912 768.310608,215.728027 768.313354,229.549973 
	C768.353027,429.169281 768.356567,628.788574 768.292603,828.407898 
	C768.289673,837.552307 765.831604,846.162048 760.328247,853.665283 
	C757.751221,857.178711 755.003662,860.567078 751.848999,864.637085 
	C757.927979,864.637085 763.082947,864.766907 768.226929,864.585388 
	C771.032288,864.486389 773.842285,863.981018 776.610229,863.450500 
	C790.211182,860.844055 800.909424,849.501648 800.860046,834.418579 
	C800.488586,720.780090 800.652771,607.139832 800.649963,492.500092 
M486.309753,222.939392 
	C494.328033,224.316269 500.865540,220.920578 507.016449,216.423538 
	C518.502136,208.026093 521.387085,193.144379 514.166443,179.863831 
	C507.961151,168.450745 492.402252,162.640396 480.204498,167.181030 
	C468.191193,171.652985 460.515991,183.183105 461.373871,195.469482 
	C462.247345,207.979385 472.499420,219.556763 486.309753,222.939392 
z"/>
<path fill="#000000" opacity="1.000000" stroke="none" 
	d="
M347.479736,416.519958 
	C336.360504,405.014343 324.557739,394.656342 314.457062,382.669495 
	C307.659760,374.602875 308.120697,365.173248 315.356384,357.468140 
	C318.088928,354.558319 320.960693,351.765411 323.916901,349.082153 
	C331.271118,342.407043 342.028473,342.186554 349.243134,348.990723 
	C356.621704,355.949402 363.722504,363.222198 370.636536,370.644745 
	C373.696930,373.930237 375.561554,373.705200 378.571686,370.545624 
	C394.073334,354.274658 409.784058,338.202728 425.444275,322.083221 
	C427.064453,320.415527 428.786163,318.838013 430.542145,317.312347 
	C436.632751,312.020630 443.066071,310.718536 449.729675,314.955688 
	C458.123718,320.293213 465.216339,326.935974 465.656464,338.155090 
	C465.860352,343.352753 463.476257,347.083252 460.383179,350.590790 
	C446.826508,365.963867 431.809723,379.925049 417.569702,394.639130 
	C406.227844,406.358551 394.714355,417.912048 383.255493,429.517914 
	C381.854919,430.936432 380.416290,432.349335 378.831177,433.547791 
	C373.356232,437.687439 368.622620,437.444275 363.654907,432.637268 
	C358.270325,427.426941 353.033081,422.064301 347.479736,416.519958 
M332.743958,362.328522 
	C331.788574,363.256104 330.829224,364.179626 329.878418,365.111847 
	C324.305603,370.575989 324.265045,370.617065 329.874634,376.348236 
	C342.795685,389.549469 355.820557,402.649872 368.658081,415.931549 
	C371.239044,418.601807 372.929199,418.627319 375.513214,415.969666 
	C398.829193,391.989258 422.263947,368.124390 445.621155,344.183960 
	C451.304993,338.358185 451.087524,337.099609 445.307251,331.196350 
	C442.849121,328.685944 441.309418,328.686005 438.877167,331.297852 
	C431.968170,338.717010 424.815857,345.911804 417.687775,353.124176 
	C406.573364,364.369995 395.256073,375.419281 384.302063,386.818298 
	C376.956848,394.461823 372.830536,394.799408 365.226166,387.242035 
	C356.843597,378.911316 348.465240,370.575348 340.179626,362.148682 
	C337.812286,359.741058 335.695343,358.767181 332.743958,362.328522 
z"/>
<path fill="#000000" opacity="1.000000" stroke="none" 
	d="
M454.986603,696.980591 
	C431.244690,721.049255 407.760651,744.875427 384.249268,768.674622 
	C374.924500,778.113586 368.519836,778.113464 359.208099,768.711060 
	C344.911621,754.275269 330.622681,739.831848 316.370667,725.352173 
	C307.516113,716.356140 307.475403,705.863708 316.088043,696.635742 
	C319.515350,692.963623 323.209625,689.652405 327.554474,687.089478 
	C334.172302,683.185608 341.551086,683.546143 347.554901,688.416077 
	C355.991821,695.259583 362.607666,703.945312 370.455261,711.397461 
	C374.936401,715.652893 375.043030,715.559021 379.448425,711.079224 
	C397.310791,692.915039 415.254517,674.830139 433.256561,656.804260 
	C437.201141,652.854492 442.201752,652.189575 447.085693,654.572205 
	C454.814148,658.342346 460.567017,664.312622 463.884735,672.308105 
	C466.513458,678.643066 465.732727,684.685852 461.205872,690.024780 
	C459.271210,692.306580 457.227600,694.495911 454.986603,696.980591 
M405.330872,706.814026 
	C398.061127,714.359985 390.849121,721.962769 383.503143,729.433777 
	C377.731995,735.303101 373.486938,735.383301 367.726105,729.723145 
	C359.297272,721.441711 351.063721,712.960999 342.609253,704.706299 
	C335.573608,697.836853 337.709290,698.963196 330.914886,704.353516 
	C324.253662,709.638000 324.256500,710.597473 330.147919,716.698120 
	C342.628143,729.621521 355.341644,742.321960 367.684357,755.374084 
	C370.845673,758.717102 372.642609,758.401123 375.630920,755.340576 
	C396.558960,733.906433 417.650269,712.631836 438.651245,691.268677 
	C441.911407,687.952332 445.401093,684.837524 448.050110,680.946533 
	C449.148285,679.333496 450.092377,677.796082 448.492950,676.037048 
	C446.512848,673.859192 444.978821,671.196167 443.189941,671.107361 
	C430.740173,682.852356 418.290405,694.597290 405.330872,706.814026 
z"/>
<path fill="#000000" opacity="1.000000" stroke="none" 
	d="
M347.295227,461.494080 
	C355.423523,469.425262 363.423737,476.973999 371.023285,484.906555 
	C374.282501,488.308502 376.345673,488.696350 379.825745,485.087067 
	C395.894165,468.422119 412.197205,451.982697 428.473022,435.518616 
	C437.138733,426.752716 443.802582,426.462891 453.253937,434.345123 
	C456.197266,436.799835 458.894287,439.517059 461.095367,442.701630 
	C466.711060,450.826660 466.456787,459.306580 459.595642,466.308777 
	C433.247894,493.198181 406.770233,519.960693 380.258179,546.688354 
	C375.052490,551.936401 369.249268,552.120422 363.957123,546.821106 
	C347.010803,529.851624 329.552521,513.375000 313.559052,495.476959 
	C309.925049,491.410156 308.961487,486.468903 310.515320,481.063263 
	C313.243103,471.573425 326.596588,459.546173 335.715271,458.414001 
	C339.890411,457.895660 343.607544,458.868408 347.295227,461.494080 
M334.505127,494.992737 
	C346.985474,507.417816 359.465790,519.842957 372.250275,532.570862 
	C374.071106,530.947021 375.874939,529.514099 377.477081,527.882996 
	C399.414642,505.549255 421.341553,483.204895 443.231384,460.824341 
	C450.648987,453.240479 450.591217,452.905884 442.701660,445.783295 
	C442.349243,445.465118 441.861328,445.297089 441.227875,444.942230 
	C440.632080,445.461487 439.985382,445.952362 439.422974,446.525879 
	C420.772400,465.545929 402.120209,484.564484 383.491486,503.605957 
	C377.139374,510.098785 374.152893,510.171295 367.703094,503.749786 
	C358.732117,494.818024 349.806610,485.840485 340.813751,476.930847 
	C339.218506,475.350403 337.533752,473.034637 334.951813,475.382416 
	C331.676514,478.360687 328.226013,481.203339 325.442413,485.187531 
	C328.403442,488.395630 331.211151,491.437622 334.505127,494.992737 
z"/>
<path fill="#000000" opacity="1.000000" stroke="none" 
	d="
M423.479431,615.479492 
	C409.690338,629.284485 396.151428,642.839661 382.612701,656.395081 
	C374.808380,664.208984 369.397125,664.574890 361.710205,656.977173 
	C345.836426,641.287720 330.185211,625.372620 314.493591,609.499756 
	C310.709106,605.671570 309.738647,600.973450 310.574554,595.699524 
	C312.234253,585.228577 325.158752,572.614624 335.600159,571.424927 
	C340.275757,570.892212 344.465668,571.899902 348.183563,574.907959 
	C356.504395,581.640015 363.701996,589.490112 370.814850,597.429443 
	C372.025787,598.781067 372.989868,600.390076 374.850189,601.169006 
	C377.099487,600.705566 378.379608,598.872986 379.878998,597.364380 
	C397.371674,579.763611 414.801025,562.099365 432.374207,544.579407 
	C437.135437,539.832581 442.473480,539.227722 448.347443,542.397644 
	C455.764130,546.400085 461.388824,552.136780 464.253204,560.218445 
	C466.587189,566.803650 465.052460,572.535156 460.390503,577.703186 
	C448.666016,590.700378 435.989502,602.760071 423.479431,615.479492 
M412.240875,586.739929 
	C411.773254,587.214355 411.301514,587.684875 410.838715,588.163940 
	C401.817291,597.503601 392.880646,606.927124 383.745728,616.154297 
	C378.025970,621.931824 373.937103,621.907166 368.422211,616.447266 
	C360.966675,609.066040 353.577881,601.617249 346.158112,594.199890 
	C337.615387,585.659790 337.757812,585.821838 328.756500,593.850342 
	C325.322754,596.912964 325.644836,598.724915 328.718231,601.745911 
	C340.474152,613.301208 352.028870,625.062683 363.577789,636.826599 
	C371.905334,645.309204 371.973450,645.490295 380.469086,636.968750 
	C401.747009,615.625916 422.898224,594.156799 444.104553,572.742615 
	C451.024506,565.754761 450.998169,564.455505 443.658142,557.718872 
	C443.199463,557.297913 442.565582,557.067871 443.206604,557.437927 
	C432.779480,567.296143 422.760529,576.768494 412.240875,586.739929 
z"/>
<path fill="#000000" opacity="1.000000" stroke="none" 
	d="
M657.000000,550.128418 
	C607.838867,550.149597 559.177307,550.077332 510.517273,550.319763 
	C504.650177,550.348938 500.319916,548.044250 496.082916,544.714294 
	C494.337128,543.342224 494.570435,541.514038 495.077240,539.697571 
	C496.359131,535.103149 500.332306,532.669128 505.869598,532.675049 
	C568.023438,532.741760 630.177307,532.811096 692.330933,532.703735 
	C696.333801,532.696777 698.236755,534.059509 698.891052,537.723022 
	C699.125916,539.038086 699.165955,540.475525 700.344543,541.330872 
	C704.872864,544.617432 701.708679,545.878357 698.890869,547.515930 
	C695.164795,549.681274 691.259460,550.197266 686.995239,550.109497 
	C677.167786,549.907104 667.332275,550.098450 657.000000,550.128418 
z"/>
<path fill="#000000" opacity="1.000000" stroke="none" 
	d="
M694.116211,312.373749 
	C698.305481,312.110535 701.965637,312.538422 704.305420,315.908600 
	C706.452148,319.000641 706.842651,322.464386 704.730774,325.767029 
	C702.559082,329.163208 699.127808,330.787262 695.303772,330.033936 
	C691.803162,329.344360 688.360535,329.354126 684.883972,329.352936 
	C628.394104,329.333405 571.904175,329.341522 515.414307,329.358246 
	C512.594910,329.359100 509.811066,329.397369 506.984192,330.000854 
	C500.805328,331.319946 495.160034,327.572296 494.688721,322.196014 
	C494.154602,316.103363 497.864777,312.674042 505.241486,312.671509 
	C565.397339,312.651001 625.553223,312.663666 685.709106,312.654327 
	C688.372620,312.653900 691.036072,312.538452 694.116211,312.373749 
z"/>
<path fill="#000000" opacity="1.000000" stroke="none" 
	d="
M697.556396,350.150604 
	C699.171631,350.771240 700.388611,351.313141 701.605774,351.854675 
	C704.724365,353.242249 706.328186,355.971191 705.970642,359.036499 
	C705.574524,362.431946 703.523376,365.144379 699.760803,366.009216 
	C695.842285,366.909821 691.892090,367.213837 687.876831,367.214844 
	C627.884399,367.229675 567.892029,367.273315 507.899628,367.344543 
	C505.023407,367.347961 502.240143,367.121735 499.659302,365.777618 
	C496.225891,363.989319 494.330078,361.131012 494.802521,357.263245 
	C495.284546,353.317047 497.888672,351.297333 501.783783,350.544769 
	C504.820984,349.957977 507.750824,350.712860 510.733734,350.710571 
	C570.392578,350.664612 630.051392,350.686157 689.710266,350.655090 
	C692.193054,350.653809 694.675659,350.274780 697.556396,350.150604 
z"/>
<path fill="#000000" opacity="1.000000" stroke="none" 
	d="
M546.000000,435.066467 
	C594.325073,434.941589 642.151733,434.969452 689.973450,434.499939 
	C696.232971,434.438477 699.906616,438.537018 704.840027,440.520203 
	C706.638794,441.243286 706.292786,443.603973 705.566589,445.474030 
	C703.923401,449.705811 698.893250,452.964661 694.348633,452.014832 
	C691.017395,451.318634 687.732971,451.360687 684.419922,451.359558 
	C627.928955,451.340393 571.438049,451.343140 514.947083,451.373077 
	C511.792267,451.374756 508.625153,451.526337 505.485596,451.832336 
	C499.920410,452.374695 494.915558,448.833191 494.681580,444.016510 
	C494.405243,438.328369 498.021820,434.702240 504.510803,434.705017 
	C518.173950,434.710815 531.836914,434.931854 546.000000,435.066467 
z"/>
<path fill="#000000" opacity="1.000000" stroke="none" 
	d="
M592.000000,692.312134 
	C562.512329,692.388672 533.524658,692.449036 504.537201,692.567871 
	C501.869293,692.578796 499.695618,691.858521 498.138092,690.086426 
	C497.804718,686.961792 503.258362,686.249207 500.718964,683.105164 
	C498.959167,680.926392 497.273468,683.661316 495.287964,684.745422 
	C494.756866,680.751892 496.304108,678.431091 499.417358,676.864929 
	C502.071106,675.529846 504.909027,675.685059 507.737061,675.684631 
	C569.718567,675.675842 631.700012,675.667358 693.681519,675.659729 
	C694.681152,675.659607 695.682983,675.628174 696.680054,675.681519 
	C702.080627,675.970642 706.527222,680.218689 706.117004,684.672791 
	C705.664856,689.582703 699.994629,694.047913 694.892761,692.990784 
	C691.564209,692.301025 688.282898,692.298645 684.972534,692.296326 
	C654.148376,692.275208 623.324158,692.300293 592.000000,692.312134 
z"/>
<path fill="#000000" opacity="1.000000" stroke="none" 
	d="
M580.000122,473.662842 
	C616.465393,473.659454 652.438599,474.045258 688.389221,473.318939 
	C695.416504,473.176971 699.681396,476.350769 704.647156,479.471802 
	C705.906799,480.263550 706.583130,481.907867 705.838501,483.475616 
	C704.390320,486.524689 702.640625,489.498352 698.994568,490.162018 
	C697.079102,490.510651 694.954590,490.429474 693.058105,489.979248 
	C690.741394,489.429230 688.455383,489.365601 686.130554,489.365723 
	C635.179749,489.367889 584.228882,489.378418 533.278076,489.372589 
	C523.791260,489.371490 514.320740,489.575378 504.897675,490.836060 
	C500.228455,491.460724 495.274933,487.734924 494.714600,483.297852 
	C494.084503,478.308594 497.292114,474.145874 502.587463,473.704590 
	C506.552826,473.374176 510.569061,473.660065 514.562622,473.660583 
	C536.208435,473.663361 557.854248,473.662689 580.000122,473.662842 
z"/>
<path fill="#000000" opacity="1.000000" stroke="none" 
	d="
M611.000000,603.411377 
	C579.010254,603.411682 547.520569,603.438416 516.031006,603.373596 
	C512.173828,603.365601 508.403442,603.836548 504.610229,604.358215 
	C502.965607,604.584473 501.087219,604.725952 500.089844,603.061340 
	C499.176270,601.536743 500.175629,600.222656 501.232727,599.066223 
	C503.178375,596.937622 502.200470,595.476318 500.082092,594.348450 
	C498.924042,593.731934 497.529083,593.489868 496.698242,591.933350 
	C497.618011,588.516907 500.523193,587.883057 503.538269,587.731934 
	C507.028473,587.556885 510.533905,587.682129 514.032715,587.681824 
	C573.680115,587.676453 633.327454,587.656311 692.974792,587.704712 
	C696.630188,587.707703 700.787170,586.816956 703.008301,590.780945 
	C703.080322,592.928467 700.772095,593.142334 700.664551,595.123169 
	C702.435425,597.188843 703.433472,599.791931 701.741699,602.550354 
	C700.431091,604.687439 698.057556,604.680115 695.894897,604.457031 
	C673.957031,602.194031 651.958435,603.864319 629.993774,603.401550 
	C623.831970,603.271729 617.664734,603.400085 611.000000,603.411377 
z"/>
<path fill="#000000" opacity="1.000000" stroke="none" 
	d="
M656.562378,828.538208 
	C644.060974,818.018494 640.977417,804.879211 645.363220,790.088257 
	C649.636047,775.678650 660.724976,768.970764 674.895508,766.852356 
	C688.500732,764.818420 704.852844,776.762634 709.074524,791.482483 
	C715.456055,813.733154 700.277283,835.023010 677.168457,835.867737 
	C669.635254,836.143127 662.885681,833.227051 656.562378,828.538208 
M665.009094,787.497009 
	C657.215942,793.137817 657.358398,807.434021 664.151672,814.356812 
	C670.845703,821.178345 681.268616,821.945923 688.452820,815.670898 
	C696.779480,808.398071 697.682556,797.660767 690.697937,788.976135 
	C684.997986,781.888855 673.972717,781.062988 665.009094,787.497009 
z"/>
<path fill="#000000" opacity="1.000000" stroke="none" 
	d="
M497.545227,740.474487 
	C494.076874,737.321899 493.891968,733.779419 495.489624,730.182190 
	C497.199066,726.333191 500.825989,725.174194 504.628021,725.284119 
	C534.104797,726.136108 563.585327,725.435669 593.062927,725.616638 
	C598.055542,725.647339 603.061340,725.816406 608.024109,725.010742 
	C610.219116,724.654419 612.341125,725.036560 614.411072,725.739868 
	C619.339233,727.414490 621.532227,731.027710 620.480286,735.681946 
	C619.538391,739.849426 614.573303,743.974243 610.577393,743.138733 
	C604.273376,741.820496 597.968628,742.411926 591.674133,742.389221 
	C565.186646,742.293640 538.698547,742.370239 512.210632,742.360535 
	C507.370300,742.358826 502.259766,744.617493 497.545227,740.474487 
z"/>
<path fill="#000000" opacity="1.000000" stroke="none" 
	d="
M511.039795,767.734741 
	C543.307922,767.715027 575.082825,767.690002 606.857727,767.664551 
	C608.188599,767.663452 609.520264,767.627197 610.850281,767.658630 
	C616.486938,767.791687 620.462952,771.241699 620.238831,775.782776 
	C620.003113,780.557617 615.627075,784.178894 610.228760,784.152344 
	C593.428772,784.069641 576.628479,783.948364 559.828430,783.969238 
	C542.030579,783.991394 524.232605,784.130249 506.435364,784.292175 
	C503.497772,784.318848 500.767700,783.706970 498.406097,782.085938 
	C495.598297,780.158569 494.126160,777.368835 494.970001,773.902039 
	C495.914703,770.020813 498.821503,768.149414 502.568604,767.757935 
	C505.200165,767.482971 507.885315,767.720642 511.039795,767.734741 
z"/>
<path fill="#000000" opacity="1.000000" stroke="none" 
	d="
M525.155273,638.433838 
	C519.026489,638.681824 513.379395,638.952515 507.730072,639.163391 
	C505.907898,639.231384 504.031128,639.403137 502.263977,639.073547 
	C497.630859,638.209412 494.466797,634.461487 494.718597,630.485718 
	C494.986542,626.255920 498.122375,622.926697 502.851257,622.490662 
	C505.958435,622.204163 509.127747,622.665527 512.269348,622.667542 
	C536.399292,622.683167 560.529297,622.635132 584.659119,622.682434 
	C592.278687,622.697327 596.377319,628.655457 593.209778,634.896729 
	C591.499512,638.266602 588.626526,639.375793 584.981018,639.314270 
	C565.200012,638.980591 545.417847,638.719421 525.155273,638.433838 
z"/>
<path fill="#000000" opacity="1.000000" stroke="none" 
	d="
M514.011353,385.700195 
	C534.480591,385.686432 554.452087,385.647888 574.423645,385.671814 
	C580.745422,385.679382 583.752380,388.685059 583.314819,394.319366 
	C582.925537,399.332428 580.303467,401.460999 574.467102,401.452332 
	C555.328186,401.423920 536.189209,401.378937 517.050293,401.354706 
	C513.729919,401.350525 510.410370,401.204559 507.133545,402.110107 
	C505.885986,402.454865 504.481110,402.378784 503.161835,402.289368 
	C497.846527,401.929047 494.590637,398.623352 494.671387,393.773956 
	C494.749115,389.106720 497.804962,386.028900 503.031036,385.723022 
	C506.513763,385.519165 510.018646,385.694153 514.011353,385.700195 
z"/>
<path fill="#000000" opacity="1.000000" stroke="none" 
	d="
M505.927002,823.290894 
	C500.072601,822.862732 496.575073,819.947144 495.195557,814.745239 
	C494.188965,810.949646 495.935669,807.916443 498.838470,805.638306 
	C502.436005,802.814941 506.350403,802.479553 510.444427,804.719238 
	C514.686523,807.039856 516.093872,810.736877 515.209045,815.214600 
	C514.275269,819.939880 511.193878,822.680725 505.927002,823.290894 
z"/>
<path fill="#000000" opacity="1.000000" stroke="none" 
	d="
M598.714355,803.600403 
	C605.900513,803.289062 610.095154,806.260925 611.049011,812.010315 
	C611.681458,815.822754 607.876892,821.926575 604.156433,823.068420 
	C598.908997,824.678772 593.561829,822.221313 591.411438,817.210999 
	C589.004944,811.604065 591.627869,806.468994 598.714355,803.600403 
z"/>
<path fill="#000000" opacity="1.000000" stroke="none" 
	d="
M546.019287,819.850098 
	C542.591064,813.309265 543.236877,808.757996 547.782654,805.343567 
	C551.385071,802.637695 557.320740,802.993896 560.718445,806.119690 
	C564.432190,809.536133 565.128235,814.163452 562.544250,818.257935 
	C559.846985,822.531921 554.880432,824.469055 550.483093,822.750244 
	C548.972046,822.159607 547.668823,821.037598 546.019287,819.850098 
z"/>
</svg>