<?xml version="1.0" standalone="no"?>
<!DOCTYPE svg PUBLIC "-//W3C//DTD SVG 20010904//EN"
 "http://www.w3.org/TR/2001/REC-SVG-20010904/DTD/svg10.dtd">
<svg version="1.0" xmlns="http://www.w3.org/2000/svg"
 width="1024.000000pt" height="1024.000000pt" viewBox="0 0 1024.000000 1024.000000"
 preserveAspectRatio="xMidYMid meet">

<g transform="translate(0.000000,1024.000000) scale(0.100000,-0.100000)"
fill="#000000" stroke="none">
<path d="M4135 8690 c-60 -5 -95 -15 -143 -39 -39 -20 -60 -36 -56 -43 4 -6 3
-8 -3 -5 -14 9 -65 -32 -57 -44 3 -5 0 -8 -8 -7 -7 2 -12 -3 -10 -10 1 -8 -2
-11 -7 -8 -19 12 -84 -102 -102 -181 -7 -30 -11 -147 -9 -321 l1 -273 -60 7
c-89 10 -232 -19 -328 -65 -43 -21 -116 -69 -163 -106 -104 -82 -172 -116
-247 -120 -60 -4 -95 8 -127 44 -10 11 -23 18 -28 15 -4 -3 -7 0 -6 8 2 7 -2
12 -9 11 -7 -2 -10 3 -8 10 3 6 -7 26 -21 42 -14 17 -23 25 -20 18 4 -6 1 -13
-6 -15 -6 -2 -12 -20 -12 -40 -1 -20 -4 -34 -8 -32 -4 3 -10 -8 -14 -23 -4
-15 -18 -50 -31 -76 -13 -26 -21 -53 -17 -59 4 -6 3 -8 -3 -5 -13 8 -26 -20
-16 -35 3 -6 1 -8 -4 -5 -13 8 -26 -20 -16 -35 3 -6 1 -8 -4 -5 -14 9 -43 -96
-50 -183 -5 -60 3 -226 23 -442 4 -51 2 -58 -13 -59 -27 -1 -108 -54 -105 -68
1 -7 -2 -10 -8 -6 -15 9 -42 -15 -36 -32 3 -8 2 -12 -3 -9 -13 8 -34 -21 -25
-35 4 -7 3 -9 -3 -6 -17 11 -38 -54 -38 -118 0 -66 39 -162 63 -157 8 1 11 -2
8 -6 -11 -18 79 -96 147 -128 20 -10 37 -25 38 -33 0 -12 3 -10 9 4 8 19 9 19
11 -2 2 -27 2 -27 16 -73 24 -75 65 -167 104 -232 52 -86 132 -173 150 -163 7
5 10 4 6 -3 -6 -9 43 -58 82 -82 8 -4 11 -29 9 -66 l-3 -59 -52 -28 c-29 -15
-61 -30 -70 -32 -75 -18 -402 -139 -458 -170 -92 -50 -177 -114 -170 -126 4
-5 1 -8 -7 -7 -7 2 -12 -3 -10 -10 1 -8 -1 -11 -6 -8 -14 8 -75 -60 -67 -75 5
-8 4 -10 -3 -5 -15 9 -87 -99 -76 -115 4 -8 3 -10 -4 -5 -13 8 -42 -46 -67
-126 -10 -31 -21 -55 -24 -54 -3 2 -7 -6 -7 -17 -1 -12 -9 -53 -17 -92 -9 -38
-18 -83 -21 -100 -2 -16 -5 -624 -5 -1350 l-1 -1320 -249 0 c-226 0 -251 -2
-269 -18 -30 -27 -33 -72 -7 -97 21 -20 35 -20 2203 -20 1201 -1 2187 2 2193
5 5 4 6 11 3 17 -4 7 -2 8 4 4 9 -5 39 32 34 42 -1 1 -9 16 -17 32 -20 38 -43
43 -165 38 -100 -4 -130 2 -126 25 4 21 26 99 46 162 39 128 92 298 150 485
33 107 62 202 65 212 2 9 11 30 19 47 l17 31 329 0 330 0 0 -534 0 -535 26
-20 c36 -28 65 -26 97 7 l27 28 0 527 0 527 353 0 354 0 12 -40 c7 -25 16 -38
23 -34 6 4 8 3 4 -4 -3 -6 25 -102 62 -214 170 -502 206 -606 212 -603 3 2 6
-10 6 -27 1 -17 6 -33 12 -37 5 -3 -79 -5 -188 -3 -210 3 -240 -2 -258 -42
-13 -30 -5 -69 18 -84 13 -8 223 -12 765 -13 725 -3 746 -2 765 17 24 24 33
93 10 79 -5 -3 -7 0 -4 8 12 32 -51 37 -506 37 l-447 0 -26 73 c-14 39 -44
129 -67 200 -23 70 -46 125 -50 122 -4 -3 -6 3 -3 13 2 11 -2 25 -10 33 -7 8
-12 20 -9 28 3 10 0 11 -9 5 -11 -6 -12 -5 -3 7 13 16 -6 75 -21 62 -4 -5 -5
-2 0 6 10 17 -15 92 -28 84 -6 -3 -7 -1 -4 4 10 16 -43 164 -55 156 -7 -3 -8
-1 -4 6 8 13 -23 123 -33 117 -3 -2 -7 6 -7 17 -1 12 -4 29 -6 37 -33 113 -40
126 -58 115 -9 -5 -11 -4 -6 3 4 7 -2 14 -16 17 -13 3 -398 4 -856 3 l-834 -3
-20 -25 c-11 -14 -18 -34 -15 -47 2 -12 1 -20 -3 -18 -11 7 -22 -43 -14 -57 4
-6 3 -8 -3 -5 -13 8 -27 -39 -17 -55 4 -6 3 -8 -3 -5 -13 8 -27 -39 -17 -56 4
-7 3 -8 -1 -4 -10 8 -57 -132 -59 -175 0 -14 -4 -24 -7 -22 -9 5 -21 -45 -14
-56 4 -6 2 -10 -3 -10 -5 0 -15 -21 -22 -47 -16 -58 -12 -45 -37 -123 -11 -36
-26 -89 -33 -117 -7 -32 -16 -50 -23 -46 -5 3 -7 1 -3 -5 3 -6 -3 -46 -15 -88
-12 -43 -22 -83 -23 -89 -11 -56 -9 -55 -139 -55 l-122 0 -2 625 -3 625 1676
0 1676 -1 66 34 c37 18 66 39 64 46 -1 7 2 9 9 6 25 -16 123 104 160 196 l22
54 1 2275 c1 1251 0 2394 -4 2540 -6 264 -6 265 -34 323 -16 34 -32 55 -38 51
-7 -4 -8 -2 -4 5 9 14 -12 43 -25 35 -5 -3 -6 1 -3 9 6 16 -43 60 -57 51 -5
-3 -8 0 -7 7 4 16 -91 74 -157 97 -47 16 -193 17 -2145 18 -1152 1 -2131 -2
-2175 -6z m4305 -164 c62 -33 120 -87 149 -137 15 -27 30 -47 33 -43 11 10 13
-415 13 -2716 l0 -2335 -22 -36 c-13 -20 -19 -40 -15 -44 4 -5 1 -4 -7 0 -11
6 -13 4 -8 -8 4 -10 2 -16 -6 -14 -7 1 -11 -4 -9 -11 1 -6 -4 -11 -10 -10 -7
2 -12 -3 -10 -10 1 -6 -1 -11 -5 -10 -5 2 -24 -7 -44 -19 -19 -12 -59 -27 -87
-33 -36 -8 -539 -12 -1677 -13 l-1626 -2 2 660 2 661 -23 77 c-13 45 -27 74
-33 70 -6 -3 -7 -1 -3 6 10 15 -13 83 -25 76 -5 -4 -6 2 -2 11 4 12 3 15 -5
10 -8 -5 -10 -1 -5 10 4 12 3 15 -5 10 -8 -5 -10 -1 -5 10 4 12 3 15 -5 10 -8
-5 -10 -1 -5 10 5 13 3 15 -8 9 -8 -4 -11 -5 -7 0 10 11 -21 67 -32 60 -6 -4
-7 1 -3 11 5 13 3 15 -7 9 -9 -5 -11 -4 -6 4 9 14 -12 43 -25 35 -5 -3 -6 1
-3 9 3 8 -3 20 -12 28 -16 12 -17 12 -9 -1 4 -8 5 -12 1 -8 -4 3 -7 8 -5 10 7
9 -24 48 -33 42 -6 -4 -8 -3 -5 3 9 15 -129 127 -144 117 -7 -4 -9 -3 -6 3 9
14 -19 37 -34 27 -7 -4 -9 -3 -6 3 9 15 -70 64 -173 108 -46 20 -88 42 -92 48
-6 9 -8 9 -8 0 0 -9 -14 -6 -46 7 -25 11 -50 20 -56 20 -5 0 -48 18 -94 39
-80 38 -84 41 -85 73 -1 18 -2 44 -2 58 -2 20 11 35 61 73 36 28 60 53 56 59
-4 6 -3 8 3 5 36 -22 176 189 239 360 36 98 41 106 84 133 21 13 36 29 33 34
-4 6 -3 8 2 4 11 -11 47 11 39 24 -4 6 -3 8 3 5 13 -8 66 50 92 102 41 79 36
184 -10 241 -12 14 -17 19 -13 11 5 -9 3 -12 -5 -7 -6 4 -9 12 -5 17 8 13 -16
40 -29 32 -5 -3 -7 -1 -4 5 8 12 -66 70 -99 78 -20 5 -22 11 -18 67 3 34 12
101 21 149 21 119 14 297 -16 391 -12 37 -26 65 -30 62 -5 -2 -8 3 -7 13 0 9
-4 16 -11 15 -7 -2 -10 3 -7 11 3 7 -3 19 -13 27 -17 13 -17 13 -3 -6 14 -18
14 -19 -2 -7 -9 8 -15 19 -12 26 3 7 -3 19 -13 27 -17 13 -17 13 -3 -6 14 -19
14 -19 -2 -6 -10 7 -15 17 -12 23 8 12 -16 39 -27 32 -5 -3 -8 0 -7 8 2 7 -3
12 -9 11 -7 -2 -12 3 -10 10 1 6 -4 11 -10 10 -7 -2 -12 3 -10 10 1 6 -4 11
-10 10 -7 -2 -12 3 -10 10 1 6 -4 11 -11 9 -8 -1 -11 2 -8 7 7 11 -20 35 -32
27 -5 -3 -18 4 -28 17 -19 22 -19 22 2 7 11 -8 7 -2 -8 13 -16 15 -34 25 -40
21 -6 -4 -8 -3 -5 3 14 23 -239 153 -265 137 -6 -4 -8 -3 -5 3 4 6 -4 14 -19
17 l-25 7 3 282 c3 269 4 284 26 332 36 79 100 138 187 172 23 9 543 11 2170
10 2071 -2 2141 -3 2175 -21z m-4690 -1162 c60 -6 178 -42 241 -75 52 -26 121
-88 112 -102 -3 -6 -1 -7 5 -3 14 8 55 -45 87 -116 20 -43 29 -88 40 -197 7
-77 16 -145 20 -151 3 -5 15 -10 26 -10 11 0 33 -7 49 -15 29 -15 30 -19 29
-78 0 -34 -4 -88 -8 -120 -9 -73 5 -97 54 -97 26 0 39 6 51 25 20 30 43 32 76
5 14 -10 29 -16 33 -12 4 4 5 -2 3 -13 -2 -12 2 -19 9 -18 20 4 10 -99 -12
-133 -11 -16 -18 -32 -17 -36 1 -5 -1 -7 -6 -7 -19 3 -33 -2 -27 -11 3 -5 0
-7 -8 -4 -8 3 -18 1 -21 -5 -4 -5 -28 -8 -55 -5 l-48 5 -13 -48 c-6 -26 -19
-69 -27 -95 -8 -26 -12 -58 -8 -70 4 -16 3 -19 -3 -9 -7 9 -14 1 -26 -34 -8
-26 -13 -52 -9 -58 3 -6 1 -7 -5 -3 -7 4 -12 5 -12 2 0 -2 -3 -12 -7 -22 -5
-13 -3 -15 7 -9 9 5 11 4 6 -4 -4 -6 -11 -9 -16 -6 -10 6 -22 -24 -14 -36 3
-5 0 -8 -8 -7 -7 2 -12 -5 -12 -14 1 -10 -3 -16 -8 -15 -6 1 -13 -4 -16 -12
-3 -9 0 -11 9 -6 8 5 11 4 6 -1 -5 -5 -14 -9 -20 -9 -7 -1 -11 -6 -9 -13 1 -7
-4 -11 -10 -10 -7 2 -12 -3 -10 -9 1 -7 -3 -13 -9 -13 -5 0 -7 -5 -4 -10 4 -6
1 -9 -7 -8 -7 2 -12 -3 -10 -10 1 -8 -2 -11 -9 -6 -7 4 -17 0 -23 -8 -6 -8
-32 -31 -58 -50 -26 -20 -44 -39 -40 -44 4 -4 2 -4 -4 -1 -7 4 -31 0 -55 -9
-43 -15 -199 -26 -199 -14 0 12 -51 31 -62 24 -7 -5 -8 -2 -3 6 6 10 4 12 -8
7 -10 -4 -16 -2 -14 6 1 7 -6 12 -15 12 -9 0 -20 4 -25 9 -5 5 -2 6 7 1 8 -4
4 3 -9 16 l-25 23 32 8 c18 5 32 13 32 18 0 6 6 9 13 8 19 -4 22 70 3 91 -21
23 -89 27 -106 6 -12 -14 -15 -13 -33 6 -16 17 -26 20 -56 14 -38 -7 -58 -25
-68 -62 -10 -41 4 -71 37 -78 33 -7 39 -19 15 -29 -8 -3 -14 -11 -13 -18 2 -7
-3 -12 -9 -11 -7 2 -30 -6 -50 -17 -134 -69 -254 -61 -369 26 -17 13 -34 21
-38 16 -4 -4 -6 0 -4 8 2 9 -3 14 -12 12 -8 -2 -12 0 -7 4 9 10 -43 65 -55 58
-5 -3 -7 0 -6 8 2 7 -3 12 -10 10 -8 -1 -11 2 -7 8 9 15 -14 41 -29 33 -6 -3
-8 -3 -4 2 11 12 -21 67 -34 59 -6 -4 -8 -3 -5 4 8 12 -2 44 -12 37 -4 -2 -7
6 -7 18 1 13 -4 21 -12 19 -8 -1 -11 2 -7 8 9 15 -5 51 -17 44 -7 -4 -8 -2 -4
4 4 6 0 35 -8 64 -8 29 -20 72 -26 96 -7 27 -15 40 -22 36 -7 -5 -8 -2 -3 6
11 18 -12 29 -54 25 -35 -4 -101 28 -101 49 0 4 -8 5 -17 2 -10 -4 -14 -4 -11
0 4 4 -3 25 -16 48 -40 70 -19 141 54 178 l34 18 20 -35 c16 -29 26 -35 53
-35 46 0 53 20 53 158 l0 120 44 6 c71 11 75 17 91 151 20 172 44 241 107 310
175 192 405 256 788 219z m-799 -1701 c13 -16 12 -17 -3 -4 -10 7 -18 15 -18
17 0 8 8 3 21 -13z m493 -269 c11 -4 16 -19 16 -48 0 -53 15 -73 62 -81 51
-10 78 18 78 81 l0 46 33 -7 c17 -4 101 -9 184 -12 147 -5 152 -6 142 -24 -5
-11 -7 -24 -4 -29 4 -6 1 -9 -7 -8 -7 2 -12 -3 -10 -10 1 -8 -1 -11 -6 -8 -5
3 -24 -5 -43 -18 -41 -27 -119 -67 -119 -61 0 2 -19 -5 -42 -15 -24 -10 -54
-21 -68 -24 -14 -3 -45 -10 -69 -16 -44 -11 -94 -7 -164 11 -20 5 -43 7 -49 3
-6 -4 -8 -3 -5 3 4 6 -11 17 -33 26 -28 11 -40 12 -44 3 -2 -6 -5 -4 -5 5 -1
8 -17 23 -37 32 -24 12 -33 13 -29 5 4 -7 0 -5 -8 4 -8 10 -17 14 -21 10 -4
-4 -6 -2 -5 3 5 15 -33 55 -45 48 -6 -4 -5 1 2 10 12 14 11 16 -6 12 -13 -2
-19 2 -18 13 1 15 19 18 138 22 90 3 141 9 150 18 14 14 12 14 32 6z m-453
-268 c5 -22 25 -95 44 -161 19 -66 43 -156 55 -200 11 -44 24 -89 27 -100 5
-17 4 -18 -10 -6 -9 7 -14 18 -11 23 4 6 -2 5 -14 -1 -16 -8 -23 -7 -33 6 -8
10 -9 14 -2 10 6 -4 14 -3 17 1 3 5 -5 9 -18 8 -14 0 -25 4 -26 9 -3 18 -23
36 -36 31 -7 -2 -20 5 -31 17 l-18 22 25 -20 25 -19 -21 23 c-11 12 -29 24
-40 25 -10 2 -19 8 -19 15 0 13 -26 32 -36 25 -4 -2 -13 4 -20 14 -13 16 -12
16 6 3 19 -14 19 -13 -1 8 -11 12 -29 24 -40 25 -10 2 -19 8 -19 15 0 14 -26
32 -37 25 -5 -3 -7 0 -6 8 2 7 -3 12 -10 10 -8 -1 -11 2 -7 7 5 9 -12 23 -40
33 -5 1 -9 7 -7 11 1 4 -5 10 -13 13 -24 10 -18 24 15 35 17 6 27 16 23 22 -3
5 -2 7 4 4 5 -3 36 6 69 22 32 15 80 36 106 46 26 9 46 20 44 24 -2 3 7 7 20
7 20 2 26 -5 35 -40z m1135 27 c27 -9 62 -24 78 -34 16 -10 33 -16 38 -13 4 3
8 0 8 -6 0 -6 5 -8 10 -5 6 3 10 3 10 -2 0 -4 27 -19 59 -33 54 -22 58 -26 40
-38 -10 -7 -25 -10 -32 -6 -6 4 -9 3 -4 -1 4 -5 -3 -20 -15 -34 -19 -21 -20
-23 -3 -11 18 14 19 14 7 -2 -8 -9 -19 -15 -27 -12 -13 5 -30 -12 -30 -30 0
-5 -8 -10 -19 -12 -23 -3 -87 -64 -80 -76 3 -5 0 -7 -8 -6 -7 2 -12 -3 -10
-10 1 -8 -1 -11 -6 -8 -12 7 -54 -23 -46 -35 3 -5 0 -8 -8 -7 -7 2 -12 -2 -11
-8 1 -6 -4 -11 -12 -11 -16 0 -83 -54 -84 -67 -1 -5 11 1 27 15 l27 24 -23
-26 c-15 -17 -31 -25 -47 -24 -18 2 -23 -1 -20 -14 2 -10 -3 -18 -11 -18 -11
0 -13 8 -10 26 3 14 8 37 10 51 4 22 32 136 40 165 1 6 7 28 11 50 5 22 10 42
10 45 17 72 63 190 74 190 4 0 30 -8 57 -17z m-986 -5 c0 10 5 8 18 -4 22 -22
159 -87 234 -111 52 -16 76 -33 47 -33 -6 0 -8 -7 -5 -16 3 -8 2 -12 -4 -9 -6
3 -10 4 -10 1 0 -2 -3 -12 -7 -22 -5 -13 -3 -15 7 -9 9 5 11 4 6 -4 -4 -6 -11
-9 -16 -6 -11 7 -22 -24 -13 -37 3 -7 1 -8 -6 -4 -6 4 -14 0 -17 -8 -3 -9 -10
-14 -14 -11 -5 3 -7 -6 -6 -20 2 -13 0 -22 -5 -19 -11 6 -30 -31 -21 -41 4 -5
1 -4 -7 0 -11 6 -13 4 -8 -8 4 -12 1 -15 -14 -12 -11 2 -17 0 -13 -6 3 -5 0
-16 -6 -24 -6 -8 -8 -20 -4 -26 4 -7 3 -9 -4 -5 -5 3 -13 0 -16 -6 -4 -9 -5
-8 -5 2 2 34 -2 51 -10 46 -5 -4 -7 4 -4 16 4 19 3 21 -7 8 -10 -13 -11 -12
-6 4 6 16 -32 157 -61 236 -4 8 -5 18 -5 23 1 4 -2 7 -7 7 -6 0 -6 12 -1 30 6
22 5 28 -2 24 -8 -5 -9 -1 -5 10 4 10 3 15 -3 11 -6 -3 -10 -4 -10 -1 0 2 -3
13 -6 23 -5 15 -4 15 5 3 8 -11 11 -12 11 -2z m757 -32 c-7 -13 -16 -22 -21
-19 -5 4 -6 1 -2 -5 9 -14 -65 -283 -76 -276 -4 3 -5 -1 -2 -9 2 -7 0 -25 -5
-40 -12 -31 -43 -32 -69 -3 -10 11 -11 16 -3 11 9 -5 12 -3 9 6 -3 8 -10 13
-16 12 -6 -2 -9 3 -6 11 3 8 0 17 -7 22 -8 5 -10 3 -4 -6 5 -9 4 -11 -3 -6 -9
5 -9 13 -2 26 8 16 7 18 -9 15 -15 -3 -18 0 -14 12 4 11 2 14 -5 9 -8 -5 -10
-1 -5 10 4 12 3 15 -6 10 -6 -4 -11 -4 -10 1 3 19 -2 32 -26 57 -13 14 -20 26
-15 26 4 0 6 9 3 20 -4 16 0 20 21 20 14 0 26 5 26 11 0 5 4 8 9 5 13 -8 119
31 186 69 33 18 61 34 62 34 0 1 -4 -10 -10 -23z m-1374 -160 c18 -42 83 -99
114 -99 7 0 10 -4 7 -8 -2 -4 6 -15 18 -24 55 -39 203 -147 206 -150 2 -2 -17
-13 -42 -25 -29 -13 -44 -25 -40 -32 5 -7 3 -8 -5 -4 -7 5 -45 -11 -91 -38
-43 -25 -84 -47 -91 -48 -21 -5 -59 -41 -59 -55 0 -18 102 -173 111 -168 3 2
6 -2 6 -8 0 -24 85 -157 96 -150 5 3 7 1 3 -5 -8 -14 88 -164 99 -154 5 4 5 1
1 -5 -9 -15 37 -86 49 -75 5 4 5 1 1 -6 -4 -7 6 -32 23 -58 17 -25 38 -58 46
-75 9 -17 21 -27 27 -23 7 4 8 3 4 -4 -8 -14 87 -165 99 -155 4 5 5 3 1 -4 -9
-15 33 -85 47 -76 6 3 7 1 3 -5 -8 -13 72 -138 86 -134 5 1 7 -2 4 -7 -9 -14
5 -42 18 -34 6 3 8 3 4 -2 -10 -11 31 -87 42 -80 6 4 7 -1 3 -11 -4 -10 -2
-15 4 -11 5 3 10 0 10 -6 0 -24 85 -157 96 -150 5 3 7 1 3 -5 -3 -6 -2 -13 4
-17 7 -4 10 -194 10 -556 l0 -549 -452 2 -453 3 -3 954 c-2 640 -6 960 -13
973 -6 11 -17 17 -25 14 -8 -3 -13 -2 -9 3 3 5 -1 11 -7 14 -19 6 -70 -10 -80
-25 -4 -7 -8 -446 -8 -975 l0 -963 -165 0 -166 0 4 1228 3 1227 22 80 c47 166
153 339 259 422 44 35 145 103 153 103 3 0 13 -20 23 -44z m2064 -7 c74 -51
208 -190 243 -252 17 -31 36 -55 41 -51 5 3 6 -3 2 -12 -5 -13 -3 -15 7 -9 8
5 11 4 7 -3 -10 -15 3 -43 16 -35 6 3 7 1 3 -5 -4 -6 0 -33 9 -59 9 -27 19
-57 21 -68 2 -11 9 -42 16 -70 9 -38 12 -344 12 -1245 l1 -1195 -165 -3 -165
-2 -1 917 c0 505 -3 930 -7 945 -7 25 -44 47 -74 42 -7 -1 -17 -2 -22 -3 -5 0
-17 -8 -25 -17 -14 -14 -16 -114 -16 -950 l0 -934 -455 0 -455 0 0 517 0 516
37 66 c20 36 98 158 173 271 74 113 160 246 189 295 30 50 64 104 76 120 12
17 59 91 104 165 161 267 223 366 287 461 35 53 64 106 64 116 0 25 -35 57
-51 47 -7 -4 -10 -3 -6 4 7 10 -58 49 -205 125 -62 32 -66 38 -43 57 8 7 12
17 8 23 -4 6 -1 7 6 3 13 -9 54 22 46 34 -3 4 3 7 13 6 9 0 16 5 14 12 -1 8 2
11 7 8 5 -3 42 20 82 52 41 32 86 66 101 76 14 9 29 28 32 42 8 31 18 30 73
-7z m-1047 -129 c6 -11 16 -17 22 -14 7 4 8 3 4 -4 -6 -10 16 -56 34 -72 3 -3
17 -21 30 -40 13 -19 37 -49 53 -67 l30 -32 -26 -168 c-15 -92 -29 -190 -33
-218 -3 -27 -12 -88 -20 -135 -8 -47 -17 -101 -20 -120 -3 -19 -17 -98 -30
-175 -14 -77 -28 -157 -31 -177 -4 -26 -11 -38 -22 -38 -14 0 -14 2 -1 10 13
8 12 10 -4 10 -13 0 -17 5 -13 20 3 11 2 18 -3 15 -7 -4 -20 51 -35 145 -4 28
-23 126 -50 260 -1 8 -24 138 -51 288 -44 247 -47 276 -34 296 69 108 126 184
134 179 5 -4 6 -1 2 6 -9 14 20 51 40 51 7 0 18 -9 24 -20z m334 -246 c3 -8
10 -13 15 -9 5 3 13 0 17 -6 5 -8 2 -10 -7 -5 -8 4 3 -8 23 -28 21 -20 42 -36
46 -36 5 0 30 18 55 40 25 22 51 40 58 40 7 0 63 -32 125 -71 l113 -71 -17
-26 c-14 -22 -14 -25 -1 -17 8 6 4 0 -9 -11 -15 -14 -22 -27 -17 -34 5 -8 4
-11 -2 -7 -14 9 -46 -40 -37 -56 4 -7 3 -9 -1 -4 -12 10 -68 -81 -59 -95 4 -6
3 -8 -3 -5 -14 9 -56 -61 -47 -75 5 -7 2 -8 -6 -3 -10 6 -12 4 -7 -9 4 -10 3
-15 -3 -11 -8 5 -42 -47 -37 -56 1 -2 0 -3 -2 -1 -9 5 -61 -84 -56 -96 3 -7 1
-11 -4 -8 -12 8 -43 -42 -35 -56 5 -7 3 -8 -6 -3 -10 6 -12 4 -7 -9 4 -9 3
-15 -2 -12 -12 8 -53 -63 -45 -76 4 -7 2 -8 -4 -4 -6 4 -18 -6 -27 -24 -8 -16
-12 -30 -8 -30 4 0 -1 -6 -12 -13 -11 -9 -15 -19 -10 -27 5 -8 4 -11 -2 -7 -6
4 -18 -4 -27 -18 -19 -29 -20 -39 -4 -29 7 4 8 3 4 -5 -4 -6 -12 -8 -18 -5 -7
5 -9 1 -5 -9 4 -11 1 -15 -12 -12 -11 2 -17 -4 -18 -17 -2 -16 1 -17 13 -7 10
8 7 -1 -6 -24 -24 -41 -37 -50 -20 -14 11 22 11 22 -5 2 -9 -11 -20 -19 -25
-18 -4 1 -7 -5 -6 -15 0 -9 -5 -16 -12 -14 -8 1 -11 -2 -8 -7 7 -11 -24 -81
-36 -81 -11 0 -10 48 2 90 6 19 12 49 15 65 9 69 27 175 40 240 7 39 16 88 20
110 3 22 23 148 45 280 37 227 61 384 63 413 1 17 14 15 21 -4z m-661 -159 c3
-22 13 -74 21 -115 8 -41 17 -88 20 -105 14 -85 40 -234 61 -350 13 -72 26
-145 30 -163 3 -17 12 -62 21 -99 35 -150 35 -159 2 -154 -4 0 -5 -7 -2 -17 5
-13 4 -14 -4 -3 -12 17 -4 43 11 34 6 -3 7 -1 3 5 -3 6 -16 9 -27 7 -11 -2
-22 2 -26 10 -3 8 -10 12 -16 8 -6 -3 -7 -1 -3 6 4 6 -1 26 -12 44 -11 17 -17
38 -14 46 3 8 0 11 -7 7 -7 -4 -9 -2 -5 7 3 8 0 18 -7 23 -8 5 -10 3 -4 -7 5
-8 4 -11 -1 -6 -5 5 -9 16 -9 25 0 9 -6 16 -12 15 -7 -2 -12 0 -12 5 3 19 -2
33 -10 28 -5 -3 -8 2 -7 12 0 9 -5 16 -12 14 -8 -1 -11 2 -8 7 9 14 -5 42 -18
34 -6 -3 -8 -3 -4 2 10 11 -11 47 -22 40 -6 -4 -7 1 -3 11 5 13 3 15 -8 9 -8
-4 -11 -5 -7 0 10 11 -21 67 -33 60 -5 -4 -9 -3 -8 2 3 20 -2 34 -11 28 -5 -3
-7 0 -4 8 3 8 0 18 -7 23 -8 5 -10 3 -4 -6 5 -9 4 -11 -4 -6 -6 4 -9 12 -6 17
7 11 -19 52 -27 43 -3 -3 -9 0 -14 7 -5 8 -3 10 6 4 8 -5 11 -3 8 6 -3 8 -10
13 -16 12 -7 -2 -9 4 -5 14 5 12 3 14 -7 8 -8 -5 -11 -4 -7 2 8 13 -27 65 -38
56 -4 -5 -5 -3 -1 4 8 15 -22 65 -35 57 -5 -3 -6 3 -2 12 5 13 3 15 -7 9 -9
-5 -11 -4 -6 3 8 13 -17 56 -26 46 -3 -3 -5 3 -5 13 1 10 -3 17 -10 16 -8 -2
-10 4 -6 14 5 12 3 14 -7 8 -8 -5 -11 -4 -6 3 8 13 -33 84 -45 76 -5 -3 -6 3
-2 12 4 12 3 15 -5 10 -8 -5 -10 -1 -5 10 5 13 3 15 -8 9 -8 -4 -11 -5 -7 0 4
4 1 20 -7 34 -13 27 -13 27 46 60 35 19 57 37 53 43 -4 6 -2 8 4 4 6 -3 32 7
58 24 26 16 53 30 59 30 6 0 24 -14 41 -31 44 -46 59 -52 93 -35 16 9 40 28
53 44 l23 29 11 -61 c7 -34 14 -79 17 -101z m728 108 c13 -16 12 -17 -3 -4
-10 7 -18 15 -18 17 0 8 8 3 21 -13z m-545 -1133 c0 -16 -2 -28 -4 -25 -9 8
-11 55 -3 55 4 0 7 -13 7 -30z m-996 -1630 l0 -60 -62 -2 c-35 0 -111 -2 -170
-3 l-108 -2 0 63 0 64 170 0 170 0 0 -60z m2090 0 l0 -60 -367 0 c-203 0 -641
-2 -975 -5 l-608 -5 0 65 0 65 975 0 975 0 0 -60z m472 1 l3 -59 -135 -4 c-74
-1 -150 -1 -167 1 l-33 3 0 59 0 59 164 0 164 0 4 -59z"/>
<path d="M4960 6755 l0 -265 80 0 80 0 0 -945 0 -945 1353 0 1352 0 0 947 0
948 48 3 47 3 0 260 0 259 -1480 0 -1480 0 0 -265z m2820 5 l0 -120 -1341 0
-1340 0 2 120 2 120 1339 0 1338 0 0 -120z m-1460 -268 c-36 -17 -69 -45 -63
-55 3 -5 2 -7 -4 -4 -14 9 -55 -22 -47 -35 4 -6 3 -8 -3 -5 -15 9 -57 -39 -48
-54 5 -7 4 -10 -2 -6 -14 9 -37 -19 -27 -34 4 -7 3 -9 -4 -5 -13 8 -56 -60
-46 -75 4 -7 3 -9 -3 -6 -13 8 -26 -20 -16 -35 3 -7 1 -8 -5 -4 -7 4 -17 -14
-27 -51 -9 -32 -20 -69 -24 -83 -13 -41 -13 -213 0 -266 6 -27 24 -77 40 -111
l28 -63 -27 -21 c-15 -11 -27 -26 -27 -32 0 -7 -9 -12 -20 -12 -11 0 -19 -6
-17 -13 1 -8 -1 -11 -6 -8 -11 7 -37 -11 -37 -26 -1 -7 -7 -12 -14 -10 -17 4
-63 -26 -56 -37 2 -5 -3 -8 -13 -7 -9 0 -16 -4 -15 -10 1 -7 -5 -11 -15 -10
-9 0 -17 -4 -17 -11 0 -6 -4 -15 -9 -20 -5 -5 -6 -2 -1 6 5 9 3 12 -6 9 -8 -3
-13 -11 -11 -17 1 -7 -2 -10 -7 -7 -5 3 -17 -2 -28 -12 -10 -9 -14 -14 -9 -9
6 4 14 7 20 7 5 0 1 -6 -9 -14 -11 -8 -26 -11 -34 -8 -9 3 -12 1 -7 -6 3 -6 1
-14 -5 -18 -8 -4 -9 -3 -5 4 11 19 -9 14 -27 -6 -10 -10 -14 -22 -10 -27 5 -4
2 -5 -5 -1 -15 9 -45 -12 -36 -25 3 -5 -3 -6 -12 -2 -13 5 -15 3 -9 -7 5 -9 4
-11 -3 -6 -7 4 -23 -4 -37 -18 -33 -33 -34 -90 -1 -128 39 -44 132 -91 166
-84 36 7 296 183 292 197 -1 6 2 8 6 5 5 -3 47 20 93 52 144 100 141 99 178
73 17 -12 36 -19 41 -16 6 4 9 1 8 -6 -5 -21 133 -88 218 -105 95 -20 259 -14
347 12 50 14 156 67 151 75 -3 5 1 7 8 4 17 -6 94 48 91 64 -2 6 3 10 10 8 6
-1 11 4 9 11 -1 8 2 11 8 7 21 -13 130 124 185 233 19 37 44 103 56 147 39
143 12 362 -58 483 -14 23 -27 42 -30 42 -2 0 -1 -5 3 -12 4 -7 3 -8 -5 -4 -6
4 -9 11 -6 16 8 14 -25 61 -38 53 -5 -3 -7 -1 -4 4 8 13 -27 46 -38 36 -4 -5
-5 -3 -1 4 8 15 -50 57 -65 47 -8 -4 -9 -3 -5 4 4 7 -3 17 -18 24 -14 6 -26
14 -26 17 0 3 124 5 275 3 l275 -3 0 -874 0 -875 -1203 0 -1204 0 -6 113 c-4
61 -7 455 -7 874 l0 763 523 3 c287 1 529 3 537 4 13 1 13 1 0 -5z m597 -49
c90 -38 155 -76 203 -119 20 -18 40 -31 44 -29 3 3 4 2 1 -2 -3 -3 6 -20 19
-37 70 -92 106 -203 106 -327 0 -96 -32 -225 -52 -213 -7 4 -8 3 -4 -5 4 -6
-2 -28 -13 -47 -12 -20 -19 -40 -15 -45 3 -5 0 -8 -7 -7 -6 2 -14 -3 -17 -11
-3 -10 0 -11 9 -5 12 7 12 5 0 -9 -16 -20 -25 -22 -16 -4 4 6 -3 1 -14 -12
-12 -12 -18 -27 -15 -32 3 -5 0 -8 -8 -7 -7 2 -12 -3 -10 -10 1 -8 -2 -11 -6
-8 -5 3 -18 -4 -28 -17 -19 -21 -19 -21 1 -7 17 12 18 12 7 0 -7 -8 -20 -15
-30 -15 -10 0 -16 -6 -14 -15 2 -8 0 -12 -3 -8 -11 10 -47 -11 -40 -23 4 -5 3
-9 -2 -8 -21 4 -34 -2 -27 -13 4 -6 3 -8 -4 -5 -14 9 -43 -3 -36 -14 3 -5 -1
-6 -9 -3 -8 3 -42 -4 -75 -15 -75 -26 -207 -28 -293 -6 -33 9 -65 13 -72 9 -7
-4 -9 -4 -5 0 8 10 -80 58 -92 51 -5 -3 -12 0 -16 6 -5 8 -2 10 7 5 8 -4 5 -1
-5 8 -10 8 -23 13 -29 9 -6 -3 -7 -1 -3 5 3 6 1 14 -5 17 -7 5 -3 15 10 29 12
12 19 26 16 29 -3 4 -2 5 1 2 12 -8 45 16 38 27 -4 7 -2 8 5 4 15 -10 43 13
34 27 -3 6 -1 7 6 3 6 -4 45 18 91 51 43 32 126 91 184 131 82 57 106 80 111
103 9 40 -2 67 -35 84 -35 18 -51 13 -118 -42 -30 -24 -89 -69 -133 -99 -45
-32 -76 -60 -73 -66 4 -7 2 -8 -5 -4 -14 9 -43 -12 -36 -24 3 -5 0 -12 -6 -16
-8 -4 -9 -3 -5 4 13 21 -4 13 -59 -29 -30 -23 -52 -45 -49 -50 3 -5 2 -9 -3
-8 -22 4 -34 -2 -27 -13 4 -7 4 -10 -1 -6 -4 4 -22 0 -39 -9 -17 -8 -28 -12
-24 -8 11 11 -11 47 -24 39 -6 -4 -8 -3 -5 4 10 15 -3 43 -16 35 -5 -3 -7 -1
-3 5 7 12 -27 106 -36 97 -3 -4 -5 56 -5 132 2 128 4 142 30 197 15 32 47 87
71 121 45 62 149 165 167 165 6 0 7 5 3 12 -4 7 -3 8 4 4 6 -4 23 0 36 9 14 9
55 28 93 41 61 22 80 24 183 21 100 -4 125 -8 187 -34z m-776 -986 c-6 -8 -7
-18 -3 -22 4 -5 2 -5 -4 -2 -13 7 -56 -21 -49 -33 3 -4 -3 -7 -13 -6 -10 0
-16 -5 -14 -13 3 -12 0 -12 -12 -1 -11 8 -16 9 -16 1 0 -6 -22 -26 -50 -44
-27 -19 -47 -37 -42 -41 4 -4 3 -7 -3 -6 -22 5 -36 -1 -29 -12 4 -6 3 -8 -3
-5 -13 8 -65 -27 -56 -38 5 -4 3 -5 -3 -2 -6 4 -33 -9 -59 -28 -27 -19 -53
-31 -59 -28 -6 4 -6 1 1 -8 10 -12 6 -14 -18 -15 -17 -1 -29 0 -27 1 29 28
131 94 139 90 5 -4 8 -1 7 7 -2 7 5 12 14 12 10 -1 16 3 15 10 -1 6 6 10 15
10 10 -1 16 2 13 6 -7 12 44 42 57 34 6 -4 8 -3 5 3 -7 11 86 82 157 120 49
26 52 27 37 10z"/>
<path d="M5243 6800 c-49 -19 -38 -103 14 -113 41 -8 73 16 73 56 0 17 -4 37
-8 43 -10 16 -54 24 -79 14z"/>
<path d="M5474 6785 c-20 -20 -22 -28 -14 -56 11 -38 25 -49 61 -49 32 0 59
28 59 61 0 60 -64 86 -106 44z"/>
<path d="M5712 6793 c-32 -28 -38 -67 -13 -92 49 -49 131 -4 109 60 -17 48
-60 63 -96 32z"/>
<path d="M2867 6583 c-19 -16 -40 -37 -45 -48 -5 -11 -8 -66 -7 -122 3 -120
24 -175 88 -227 l39 -31 206 -3 207 -3 -3 -104 c-3 -94 -1 -106 17 -124 25
-25 73 -27 95 -5 14 13 16 51 16 260 l0 244 55 0 55 0 0 -250 0 -250 26 -10
c30 -12 68 -4 86 17 12 15 15 37 17 166 l1 57 180 0 c200 0 224 5 278 61 42
43 59 102 61 211 2 98 -10 133 -58 168 -28 20 -41 21 -245 20 -199 -1 -217 -3
-241 -22 -14 -11 -23 -24 -19 -29 3 -5 2 -9 -3 -8 -4 1 -15 0 -23 -4 -8 -3
-54 -8 -102 -11 -81 -5 -90 -3 -115 18 -65 54 -76 56 -311 56 l-219 0 -36 -27z
m459 -117 c16 -12 20 -29 22 -105 l4 -91 -175 0 c-164 0 -177 1 -190 20 -8 11
-17 17 -21 12 -4 -4 -7 -2 -6 3 4 19 0 36 -7 32 -5 -3 -7 28 -5 69 l4 74 177
0 c137 0 182 -3 197 -14z m789 -33 c-12 -98 -16 -109 -40 -136 l-26 -27 -154
0 -155 0 0 83 c0 130 -5 127 206 127 l175 0 -6 -47z"/>
<path d="M3307 3511 c15 -27 32 -47 36 -44 5 3 5 8 0 12 -5 3 -19 23 -32 44
-33 54 -36 45 -4 -12z"/>
</g>
</svg>
